<?xml version="1.0" standalone="no"?>
<!DOCTYPE svg PUBLIC "-//W3C//DTD SVG 20010904//EN"
 "http://www.w3.org/TR/2001/REC-SVG-20010904/DTD/svg10.dtd">
<svg version="1.0" xmlns="http://www.w3.org/2000/svg"
 width="700.000000pt" height="700.000000pt" viewBox="0 0 700.000000 700.000000"
 preserveAspectRatio="xMidYMid meet">
<metadata>
Created by potrace 1.14, written by Peter Selinger 2001-2017
</metadata>
<g transform="translate(0.000000,700.000000) scale(0.100000,-0.100000)"
fill="#000000" stroke="none">
<path d="M1949 6996 c-2 -2 -34 -7 -70 -10 -219 -21 -488 -101 -714 -211 -538
-264 -925 -719 -1083 -1275 -16 -58 -33 -123 -38 -145 -4 -22 -9 -47 -10 -55
-4 -18 -11 -68 -23 -165 -10 -73 -6 -443 4 -505 3 -19 13 -78 21 -130 26 -158
78 -359 134 -510 l21 -55 202 2 c111 1 216 2 234 2 l32 1 -28 68 c-57 139
-123 351 -146 467 -58 294 -62 521 -14 774 129 677 692 1192 1416 1295 143 21
399 14 530 -13 139 -29 268 -73 377 -127 176 -88 247 -144 484 -381 l222 -222
223 222 c237 238 311 297 484 381 82 41 240 99 294 110 13 2 46 9 73 15 172
40 490 36 681 -9 28 -6 57 -13 66 -15 60 -12 247 -83 332 -126 248 -124 411
-260 600 -499 124 -156 256 -465 282 -660 2 -14 6 -38 9 -55 14 -83 19 -201
14 -385 -1 -31 -22 -195 -33 -255 -29 -161 -131 -487 -173 -553 -8 -12 -12
-25 -9 -29 11 -11 458 -9 467 2 26 33 107 311 139 475 37 190 49 324 46 530
-2 107 -5 204 -8 215 -3 11 -8 47 -12 80 -3 32 -8 62 -10 65 -2 4 -7 22 -10
41 -22 125 -91 331 -155 464 -308 637 -930 1074 -1660 1169 -101 13 -444 15
-500 3 -14 -3 -43 -8 -65 -11 -261 -38 -532 -142 -762 -292 -89 -59 -133 -94
-237 -187 -38 -34 -72 -62 -77 -62 -4 0 -29 20 -56 45 -284 265 -620 430
-1008 496 -88 14 -475 30 -486 20z"/>
<path d="M4307 5676 c-42 -16 -61 -28 -100 -71 -32 -35 -31 -29 -222 -705 -59
-206 -111 -388 -116 -405 -5 -16 -97 -338 -205 -715 -107 -376 -197 -686 -199
-688 -3 -3 -7 4 -11 14 -11 30 -223 567 -234 589 -14 30 -351 874 -367 918
-22 63 -49 110 -80 139 -86 82 -231 76 -308 -13 -17 -19 -210 -306 -430 -637
l-400 -601 -730 -1 c-698 0 -732 -1 -772 -20 -82 -37 -125 -98 -129 -183 -5
-95 35 -165 123 -215 25 -15 114 -17 837 -18 481 -1 824 3 846 8 21 6 54 23
74 39 21 18 169 230 362 519 180 270 330 488 334 485 4 -3 11 -17 15 -32 3
-15 15 -45 24 -68 10 -22 53 -128 96 -235 42 -107 83 -208 90 -225 7 -16 34
-84 60 -150 50 -129 55 -141 78 -195 8 -19 63 -156 122 -305 58 -148 111 -279
116 -290 4 -11 34 -83 64 -160 31 -77 65 -154 76 -171 53 -87 180 -119 276
-70 81 41 96 72 189 399 46 161 90 312 97 337 8 25 128 447 268 937 140 491
256 893 259 893 3 0 67 -156 143 -348 76 -191 142 -356 147 -367 5 -11 28 -67
50 -125 23 -58 45 -112 49 -120 4 -8 63 -157 131 -330 115 -289 129 -318 170
-360 25 -25 61 -50 80 -56 23 -7 301 -11 825 -12 850 -1 858 -1 915 51 44 39
72 94 77 155 7 79 -32 154 -102 197 l-48 30 -726 5 -725 5 -119 295 c-145 364
-89 224 -425 1065 -303 758 -303 759 -382 800 -42 22 -118 27 -163 11z"/>
<path d="M983 2617 c-3 -5 4 -18 14 -30 11 -12 31 -35 45 -52 46 -55 172 -199
218 -250 61 -68 438 -445 525 -525 429 -396 1002 -843 1578 -1230 l138 -93 87
59 c248 166 556 386 766 546 96 73 358 280 374 295 7 7 34 29 60 50 56 45 69
57 237 204 191 167 239 212 470 444 247 247 532 565 522 582 -3 5 -128 8 -279
8 l-273 0 -260 -260 c-143 -144 -282 -281 -310 -305 -27 -25 -88 -79 -135
-121 -69 -62 -190 -164 -375 -318 -194 -161 -859 -651 -884 -651 -9 0 -191
125 -331 228 -47 34 -96 70 -109 79 -63 46 -321 243 -331 253 -3 3 -39 32 -80
65 -77 61 -288 236 -350 291 -195 172 -290 263 -509 483 l-255 256 -274 0
c-150 0 -276 -3 -279 -8z"/>
</g>
</svg>
